<?xml version="1.0" standalone="no"?>
<!DOCTYPE svg PUBLIC "-//W3C//DTD SVG 20010904//EN"
 "http://www.w3.org/TR/2001/REC-SVG-20010904/DTD/svg10.dtd">
<svg version="1.0" xmlns="http://www.w3.org/2000/svg"
 width="225.000000pt" height="85.000000pt" viewBox="0 0 225.000000 85.000000"
 preserveAspectRatio="xMidYMid meet">
<metadata>
Created by potrace 1.15, written by Peter Selinger 2001-2017
</metadata>
<g transform="translate(0.000000,85.000000) scale(0.100000,-0.100000)"
fill="#000000" stroke="none">
<path d="M472 827 c-20 -21 -22 -34 -22 -135 0 -62 -2 -112 -4 -112 -2 0 -25
10 -51 21 -40 18 -62 21 -125 17 -119 -7 -193 -59 -246 -173 -31 -66 -33 -198
-5 -261 25 -55 84 -119 140 -152 38 -22 60 -27 136 -30 86 -4 93 -3 155 30 45
23 76 48 102 83 63 82 68 114 68 415 0 255 -1 268 -21 294 -28 35 -95 37 -127
3z m-157 -475 c1 -1 21 2 45 7 l42 9 -32 -33 -33 -34 23 -35 c25 -41 23 -42
-24 -20 l-34 17 -30 -34 -30 -34 5 48 c6 47 5 47 -33 64 l-39 16 42 9 c39 8
42 12 48 49 l7 41 20 -34 c11 -18 21 -34 23 -36z"/>
<path d="M669 811 c-62 -63 -20 -171 66 -171 50 0 105 53 105 100 0 23 -9 42
-34 66 -45 45 -95 47 -137 5z"/>
<path d="M990 793 c-8 -3 -25 -15 -37 -26 -20 -18 -23 -31 -23 -94 0 -67 -2
-73 -21 -73 -26 0 -79 -52 -79 -78 0 -29 37 -70 70 -77 l30 -7 0 -134 c0 -90
4 -145 13 -167 34 -81 113 -136 195 -137 48 0 96 21 106 45 24 64 -16 125 -83
125 -55 0 -61 16 -61 154 l0 116 30 0 c37 0 85 23 94 45 22 59 -18 115 -84
115 l-40 0 0 59 c0 80 -13 109 -55 126 -19 8 -36 15 -37 14 -2 0 -10 -3 -18
-6z"/>
<path d="M1382 784 c-41 -17 -52 -41 -52 -118 0 -58 -2 -66 -19 -66 -10 0 -30
-9 -45 -21 -48 -38 -28 -120 33 -134 l29 -6 4 -142 c3 -135 4 -145 31 -190 38
-65 93 -100 167 -105 66 -5 94 7 115 48 29 57 -14 120 -81 120 -57 0 -64 17
-64 149 l0 118 47 6 c118 13 110 157 -8 157 l-39 0 0 69 c0 53 -4 74 -20 93
-24 31 -59 39 -98 22z"/>
<path d="M679 591 l-29 -29 0 -250 0 -250 26 -31 c33 -40 83 -43 119 -6 l25
24 0 261 0 261 -25 24 c-34 35 -78 33 -116 -4z"/>
<path d="M1844 610 c-55 -17 -128 -73 -161 -124 -109 -168 -32 -411 148 -471
67 -23 198 -17 254 10 54 27 116 90 143 147 32 69 31 203 -2 274 -28 61 -81
116 -139 146 -47 24 -188 35 -243 18z m196 -185 c51 -49 63 -123 30 -190 -25
-51 -65 -75 -125 -75 -60 0 -100 24 -125 75 -32 66 -23 133 23 184 31 33 55
41 115 38 42 -3 59 -10 82 -32z"/>
</g>
</svg>
